<svg xmlns="http://www.w3.org/2000/svg" viewBox="0 0 169.76 104.88"><defs><style>.cls-1{fill:#00f584;}</style></defs><title>icono w verde</title><g id="Capa_2" data-name="Capa 2"><g id="Modo_de_aislamiento" data-name="Modo de aislamiento"><path class="cls-1" d="M169.76,0V54.15a52.4,52.4,0,0,1-23.45,41.91c-.86.59-1.75,1.13-2.67,1.67a49.7,49.7,0,0,1-16.08,6.18,53.1,53.1,0,0,1-10.25,1,52.43,52.43,0,0,1-10.17-1,50.23,50.23,0,0,1-16.08-6.1c-1-.57-1.91-1.16-2.86-1.78C87.1,95.28,86,94.5,85,93.69c0,0,0,0,.06,0a.13.13,0,0,1-.08,0l0,0a52.16,52.16,0,0,1-6.16,4.2,51.14,51.14,0,0,1-14,5.73s0,0,0,0a51.54,51.54,0,0,1-8,1.24H48.28a50.45,50.45,0,0,1-22-6.91c-.94-.57-1.88-1.13-2.79-1.75A51.54,51.54,0,0,1,7.16,78.71,49.54,49.54,0,0,1,0,52.56V0H23.46V51.59c0,.33,0,.65,0,1s0,.67,0,1A28.64,28.64,0,0,0,38,77.74,29.38,29.38,0,0,0,64.75,79s0,0,0,0,0,0,.06,0a25.19,25.19,0,0,0,2.25-1.16,30.43,30.43,0,0,0,3.21-2.15,48.78,48.78,0,0,1-5.46-21.12V0H88.2V14.18a.33.33,0,0,1,.11.1V50.44c0,.64,0,1.29,0,2s0,1.32,0,2A28.67,28.67,0,0,0,92.13,67a27.92,27.92,0,0,0,7.56,8.5,24.35,24.35,0,0,0,3.09,2,29.36,29.36,0,0,0,29.14,0,28.29,28.29,0,0,0,10.57-10.65,29,29,0,0,0,3.82-12.62c0-.62.05-1.26.05-1.91s0-1.32-.05-2V0Z"/></g></g></svg>